<svg fill="#000000" xmlns="http://www.w3.org/2000/svg"  viewBox="0 0 53 53" width="66px" height="66px"><path d="M 7.8847656 2.5 C 5.7285156 2.5 3.9746094 4.2539062 3.9746094 6.4101562 L 3.9746094 46.589844 C 3.9746095 48.745606 5.7285156 50.5 7.8847656 50.5 L 35.455078 50.5 C 37.383301 50.5 39.04248 49.061523 39.314453 47.152344 C 39.392578 46.605469 39.013672 46.097168 38.466797 46.019531 C 37.925293 45.939941 37.413574 46.321777 37.335938 46.869141 C 37.203125 47.798828 36.394531 48.5 35.455078 48.5 L 7.8847656 48.5 C 6.8315429 48.5 5.9746094 47.643066 5.9746094 46.589844 L 5.9746094 6.4101562 C 5.9746095 5.3569335 6.831543 4.5 7.8847656 4.5 L 35.455078 4.5 C 36.508301 4.5 37.365234 5.3569336 37.365234 6.4101562 L 37.365234 10.5 C 37.361816 10.533203 37.361328 10.565918 37.361328 10.599609 C 37.361328 11.151855 37.812988 11.599609 38.365234 11.599609 C 38.91748 11.599609 39.365234 11.151855 39.365234 10.599609 L 39.365234 6.4101562 C 39.365234 4.2539062 37.611328 2.5 35.455078 2.5 L 7.8847656 2.5 z M 9.9746094 7.5 C 9.4223633 7.5 8.9746094 7.9477539 8.9746094 8.5 C 8.9746094 9.0522461 9.4223633 9.5 9.9746094 9.5 L 33.363281 9.5 C 33.915527 9.5 34.363281 9.0522461 34.363281 8.5 C 34.363281 7.9477539 33.915527 7.5 33.363281 7.5 L 9.9746094 7.5 z M 9.9746094 13.5 C 9.4223633 13.5 8.9746094 13.947754 8.9746094 14.5 C 8.9746094 15.052246 9.4223633 15.5 9.9746094 15.5 L 29.576172 15.5 C 30.128418 15.5 30.576172 15.052246 30.576172 14.5 C 30.576172 13.947754 30.128418 13.5 29.576172 13.5 L 9.9746094 13.5 z M 38.357422 13.603516 C 37.52002 13.603516 36.919922 14.147461 36.4375 14.583984 C 36.270996 14.735352 35.992187 14.987793 35.880859 15.023438 C 35.758789 15.054199 35.367676 14.973145 35.134766 14.923828 C 34.508301 14.790039 33.72998 14.624512 33.025391 15.033203 C 32.312988 15.446289 32.066406 16.208984 31.869141 16.822266 C 31.797852 17.043945 31.679199 17.416504 31.595703 17.503906 C 31.507324 17.588867 31.135742 17.709473 30.914062 17.78125 C 30.30127 17.979492 29.538086 18.225098 29.126953 18.9375 C 28.719238 19.642578 28.884277 20.421387 29.017578 21.046875 C 29.067383 21.280762 29.151367 21.671875 29.119141 21.792969 C 29.083496 21.90625 28.830566 22.186523 28.679688 22.353516 C 28.243652 22.835449 27.701172 23.43457 27.701172 24.271484 C 27.701172 25.108398 28.243652 25.70752 28.679688 26.189453 C 28.830566 26.356445 29.083984 26.63623 29.119141 26.748047 C 29.151855 26.870605 29.066895 27.262207 29.017578 27.496094 C 28.884277 28.121094 28.719727 28.898438 29.126953 29.603516 C 29.538574 30.315918 30.299805 30.563477 30.912109 30.761719 C 31.133789 30.833496 31.506348 30.953125 31.59375 31.037109 C 31.678223 31.125488 31.797852 31.49707 31.869141 31.71875 C 31.915894 31.864075 31.965698 32.018372 32.023438 32.173828 L 29.095703 40.03125 C 28.955078 40.40918 29.055176 40.835449 29.349609 41.111328 C 29.644043 41.388184 30.077148 41.458496 30.443359 41.292969 L 33.441406 39.947266 L 34.826172 42.931641 C 34.99295 43.29044 35.360317 43.525581 35.771484 43.509766 C 36.174805 43.494141 36.528809 43.239258 36.669922 42.861328 L 38.365234 38.314453 L 40.056641 42.859375 C 40.20258 43.250732 40.576012 43.511719 40.994141 43.511719 C 41.382324 43.511719 41.73584 43.285645 41.900391 42.931641 L 43.285156 39.947266 L 46.285156 41.292969 C 46.652344 41.458008 47.083496 41.387695 47.376953 41.111328 C 47.671387 40.835938 47.771484 40.40918 47.630859 40.03125 L 44.699219 32.164062 C 44.755005 32.013184 44.804016 31.86377 44.849609 31.722656 C 44.921387 31.500977 45.04248 31.128906 45.126953 31.041016 C 45.215332 30.956055 45.586426 30.835449 45.808594 30.763672 C 46.421387 30.56543 47.185059 30.320313 47.597656 29.607422 C 48.005371 28.902344 47.839355 28.124023 47.707031 27.498047 C 47.657227 27.26416 47.573242 26.871094 47.605469 26.75 C 47.641113 26.637207 47.895508 26.358887 48.046875 26.191406 C 48.48291 25.708984 49.025391 25.108398 49.025391 24.271484 C 49.025391 23.434082 48.480957 22.833984 48.044922 22.351562 C 47.894043 22.18457 47.642578 21.904297 47.607422 21.792969 C 47.574707 21.67041 47.657227 21.278809 47.707031 21.044922 C 47.839355 20.418945 48.005371 19.640137 47.597656 18.935547 C 47.185547 18.222656 46.421387 17.975586 45.808594 17.777344 C 45.586426 17.705566 45.216797 17.586426 45.128906 17.501953 C 45.043945 17.413574 44.92334 17.041992 44.851562 16.820312 C 44.65332 16.207031 44.405762 15.444336 43.693359 15.033203 C 42.987793 14.623535 42.208496 14.788574 41.583984 14.921875 C 41.350098 14.970703 40.959473 15.051269 40.837891 15.021484 C 40.725098 14.98584 40.444824 14.733398 40.277344 14.582031 C 39.794922 14.145996 39.194336 13.603516 38.357422 13.603516 z M 38.333984 15.601562 C 38.456543 15.631836 38.756348 15.903809 38.935547 16.066406 C 39.317383 16.411133 39.750488 16.802734 40.320312 16.955078 C 40.907715 17.112305 41.486816 16.987793 41.998047 16.878906 C 42.226074 16.831055 42.607422 16.748535 42.666016 16.744141 C 42.75293 16.83252 42.875977 17.209961 42.949219 17.435547 C 43.109375 17.930664 43.289063 18.492676 43.712891 18.916016 C 44.13623 19.339844 44.697754 19.521484 45.193359 19.681641 C 45.418457 19.754883 45.796875 19.875488 45.851562 19.902344 C 45.880371 20.020508 45.79834 20.400879 45.75 20.628906 C 45.641113 21.141602 45.517578 21.723145 45.673828 22.308594 C 45.826172 22.87793 46.217285 23.310059 46.5625 23.691406 C 46.714844 23.860352 46.964844 24.137207 47.019531 24.271484 C 46.964844 24.405273 46.715332 24.681152 46.5625 24.849609 C 46.217773 25.231445 45.826172 25.664551 45.673828 26.234375 C 45.517578 26.819336 45.641113 27.399414 45.75 27.912109 C 45.79834 28.140137 45.879395 28.521973 45.884766 28.580078 C 45.796387 28.666992 45.418457 28.788574 45.193359 28.861328 C 44.697266 29.021484 44.136719 29.203125 43.712891 29.626953 C 43.289063 30.050293 43.107422 30.612305 42.947266 31.107422 C 42.704453 31.855251 42.816166 31.837023 41.998047 31.664062 C 41.714905 31.604187 41.411804 31.544861 41.097656 31.525391 C 40.844055 31.508728 40.584961 31.515198 40.324219 31.582031 C 39.744141 31.731934 39.304199 32.134277 38.917969 32.488281 C 38.763367 32.6297 38.61261 32.774414 38.453125 32.882812 C 38.409485 32.911133 38.377197 32.928345 38.369141 32.935547 C 38.017281 32.821472 37.332592 31.839136 36.402344 31.585938 C 35.579819 31.365091 34.47752 31.748295 34.058594 31.794922 C 34.053833 31.790161 34.033752 31.769287 34.005859 31.710938 C 33.958065 31.610491 33.960255 31.68762 33.773438 31.105469 C 33.613769 30.609863 33.433106 30.047852 33.009766 29.623047 C 32.586426 29.199707 32.024902 29.017578 31.529297 28.857422 C 31.304199 28.784668 30.926758 28.664551 30.873047 28.638672 C 30.844238 28.52002 30.92627 28.13916 30.974609 27.912109 C 31.083496 27.398926 31.207031 26.817383 31.050781 26.232422 C 30.898926 25.662109 30.507324 25.229004 30.162109 24.847656 C 30 24.668457 29.729492 24.369141 29.699219 24.294922 C 29.729492 24.172852 30 23.872559 30.162109 23.693359 C 30.507324 23.311523 30.898926 22.880371 31.050781 22.310547 C 31.207031 21.725586 31.083984 21.143555 30.974609 20.630859 C 30.92627 20.40332 30.844727 20.022949 30.839844 19.964844 C 30.928223 19.87793 31.304199 19.756348 31.529297 19.683594 C 32.024902 19.522949 32.586426 19.341797 33.009766 18.917969 C 33.433106 18.494141 33.613769 17.931152 33.773438 17.435547 C 33.846191 17.210449 33.968262 16.833008 33.994141 16.779297 C 34.11084 16.749023 34.491699 16.831055 34.71875 16.878906 C 35.231934 16.987305 35.813965 17.111816 36.398438 16.955078 C 36.967285 16.802734 37.400391 16.411133 37.78125 16.066406 C 37.960449 15.904297 38.259766 15.631836 38.333984 15.601562 z M 38.363281 19.271484 C 35.606445 19.271484 33.363281 21.514648 33.363281 24.271484 C 33.363281 27.02832 35.606445 29.271484 38.363281 29.271484 C 41.120117 29.271484 43.363281 27.02832 43.363281 24.271484 C 43.363281 21.514648 41.120117 19.271484 38.363281 19.271484 z M 9.9746094 19.5 C 9.4223633 19.5 8.9746094 19.947754 8.9746094 20.5 C 8.9746094 21.052246 9.4223633 21.5 9.9746094 21.5 L 25.896484 21.5 C 26.44873 21.5 26.896484 21.052246 26.896484 20.5 C 26.896484 19.947754 26.44873 19.5 25.896484 19.5 L 9.9746094 19.5 z M 38.363281 21.271484 C 40.017578 21.271484 41.363281 22.617187 41.363281 24.271484 C 41.363281 25.925293 40.017578 27.271484 38.363281 27.271484 C 36.708984 27.271484 35.363281 25.925293 35.363281 24.271484 C 35.363281 22.617187 36.708984 21.271484 38.363281 21.271484 z M 9.9746094 25.5 C 9.4223633 25.5 8.9746094 25.947754 8.9746094 26.5 C 8.9746094 27.052246 9.4223633 27.5 9.9746094 27.5 L 25.246094 27.5 C 25.79834 27.5 26.246094 27.052246 26.246094 26.5 C 26.246094 25.947754 25.79834 25.5 25.246094 25.5 L 9.9746094 25.5 z M 9.9746094 31.5 C 9.4223633 31.5 8.9746094 31.947754 8.9746094 32.5 C 8.9746094 33.052246 9.4223633 33.5 9.9746094 33.5 L 27.724609 33.5 C 28.276855 33.5 28.724609 33.052246 28.724609 32.5 C 28.724609 31.947754 28.276855 31.5 27.724609 31.5 L 9.9746094 31.5 z M 40.966797 33.515625 C 41.435642 33.549618 42.374409 33.885429 43.140625 33.720703 C 43.141785 33.720459 43.143433 33.720947 43.144531 33.720703 L 44.921875 38.490234 L 43.203125 37.71875 C 42.704102 37.494629 42.116699 37.711914 41.886719 38.208984 L 41.095703 39.916016 L 39.433594 35.449219 L 39.849609 34.332031 C 39.860107 34.323425 39.870361 34.313415 39.880859 34.304688 C 40.204147 34.041725 40.677761 33.569481 40.835938 33.519531 C 40.86615 33.511169 40.91156 33.512207 40.966797 33.515625 z M 35.878906 33.519531 C 35.906284 33.528301 37.098064 34.563351 37.550781 34.763672 L 37.427734 35.089844 C 37.424561 35.098267 37.426758 35.10675 37.423828 35.115234 L 35.632812 39.917969 L 34.841797 38.210938 C 34.672852 37.84668 34.311035 37.630859 33.933594 37.630859 C 33.796387 37.630859 33.658203 37.65918 33.525391 37.71875 L 31.804688 38.490234 L 33.582031 33.720703 C 34.11441 33.831982 35.872566 33.517857 35.878906 33.519531 z M 9.9746094 37.5 C 9.4223633 37.5 8.9746094 37.947754 8.9746094 38.5 C 8.9746094 39.052246 9.4223633 39.5 9.9746094 39.5 L 26.455078 39.5 C 27.007324 39.5 27.455078 39.052246 27.455078 38.5 C 27.455078 37.947754 27.007324 37.5 26.455078 37.5 L 9.9746094 37.5 z M 9.9746094 43.5 C 9.4223633 43.5 8.9746094 43.947754 8.9746094 44.5 C 8.9746094 45.052246 9.4223633 45.5 9.9746094 45.5 L 32.246094 45.5 C 32.79834 45.5 33.246094 45.052246 33.246094 44.5 C 33.246094 43.947754 32.79834 43.5 32.246094 43.5 L 9.9746094 43.5 z"/></svg>