<svg fill="#000000" xmlns="http://www.w3.org/2000/svg"  viewBox="0 0 64 64" width="64px" height="64px"><path d="M 12 2 A 1 1 0 0 0 11 3 L 11 24 A 1 1 0 0 0 12 25 A 1 1 0 0 0 13 24 L 13 4 L 51 4 L 51 35 A 1 1 0 0 0 53 35 L 53 3 A 1 1 0 0 0 52 2 L 12 2 z M 40.931641 5.9628906 A 1 1 0 0 0 40 6.7597656 L 39 10.880859 L 38 6.7597656 A 1 1 0 0 0 36.060547 6.7597656 L 35.060547 10.880859 L 34 6.7597656 A 1.0283968 1.0283968 0 0 0 32 7.2402344 L 34 15.240234 A 1 1 0 0 0 35 16 A 1 1 0 0 0 36 15.240234 L 37 11.119141 L 38 15.240234 A 1 1 0 0 0 39.939453 15.240234 L 41.939453 7.2402344 A 1 1 0 0 0 40.931641 5.9628906 z M 16.027344 6 A 1 1 0 0 0 15 7 L 15 15 A 1 1 0 0 0 16 16 A 1 1 0 0 0 17 15 L 17 10 L 21.199219 15.599609 A 1 1 0 0 0 22 16 A 1.19 1.19 0 0 0 22.320312 15.949219 A 1 1 0 0 0 23 15 L 23 7 A 1 1 0 0 0 21 7 L 21 12 L 16.800781 6.4003906 A 1 1 0 0 0 16.027344 6 z M 26 6 A 1 1 0 0 0 25 7 L 25 15 A 1 1 0 0 0 26 16 L 30 16 A 1 1 0 0 0 30 14 L 27 14 L 27 12 L 30 12 A 1 1 0 0 0 30 10 L 27 10 L 27 8 L 30 8 A 1 1 0 0 0 30 6 L 26 6 z M 45.912109 6.0019531 A 3 3 0 0 0 46 12 A 1 1 0 1 1 45 13 A 1 1 0 0 0 43 13 A 3 3 0 1 0 46 10 A 1 1 0 0 1 46 8 A 1 1 0 0 1 47 9 A 1 1 0 0 0 49 9 A 3 3 0 0 0 45.912109 6.0019531 z M 7.9394531 16.296875 A 1 1 0 0 0 7.5 16.410156 A 3 3 0 0 0 6 19 L 6 49 A 3 3 0 0 0 9 52 L 22.130859 52 L 19.460938 56 L 17 56 A 1 1 0 0 0 17 58 L 47 58 A 1 1 0 0 1 48 59 L 48 60 L 15 60 A 1 1 0 0 0 15 62 L 49 62 A 1 1 0 0 0 50 61 L 50 59 A 3 3 0 0 0 47 56 L 44.539062 56 L 41.869141 52 L 55 52 A 3 3 0 0 0 58 49 L 58 19 A 3 3 0 0 0 56.5 16.410156 A 1 1 0 0 0 55.5 18.140625 A 1 1 0 0 1 56 19 L 56 44 L 53 44 L 53 39 A 1 1 0 0 0 51 39 L 51 44 L 13 44 L 13 28 A 1 1 0 0 0 11 28 L 11 45 A 1 1 0 0 0 12 46 L 56 46 L 56 49 A 1 1 0 0 1 55 50 L 9 50 A 1 1 0 0 1 8 49 L 8 19 A 1 1 0 0 1 8.5 18.140625 A 1 1 0 0 0 7.9394531 16.296875 z M 16 20 A 1 1 0 0 0 15 21 L 15 31 A 1 1 0 0 0 16 32 L 26 32 A 1 1 0 0 0 27 31 L 27 21 A 1 1 0 0 0 26 20 L 16 20 z M 17 22 L 25 22 L 25 26 L 21 26 L 21 25 A 1 1 0 0 0 20 24 L 17 24 L 17 22 z M 36 22 A 1 1 0 0 0 36 24 L 47 24 A 1 1 0 0 0 47 22 L 36 22 z M 17 26 L 19 26 L 19 30 L 17 30 L 17 26 z M 33 26 A 1 1 0 0 0 33 28 L 47 28 A 1 1 0 0 0 47 26 L 33 26 z M 21 28 L 25 28 L 25 30 L 21 30 L 21 28 z M 33 30 A 1 1 0 0 0 33 32 L 47 32 A 1 1 0 0 0 47 30 L 33 30 z M 20 34 A 1 1 0 0 0 20 36 L 26 36 A 1 1 0 0 0 26 34 L 20 34 z M 33 34 A 1 1 0 0 0 33 36 L 47 36 A 1 1 0 0 0 47 34 L 33 34 z M 16 38 A 1 1 0 0 0 16 40 L 26 40 A 1 1 0 0 0 26 38 L 16 38 z M 33 38 A 1 1 0 0 0 33 40 L 47 40 A 1 1 0 0 0 47 38 L 33 38 z M 24.539062 52 L 39.460938 52 L 42.130859 56 L 21.869141 56 L 24.539062 52 z"/></svg>