<svg fill="#000000" xmlns="http://www.w3.org/2000/svg"  viewBox="0 0 512 512" width="64px" height="64px"><path d="M 112.24219 16 A 7.9997 7.9997 0 0 0 104.37695 25.457031 L 118.86914 103.7168 A 547.93549 547.93549 0 0 1 101.62305 370.86133 L 81.900391 432 L 24 432 A 8.00022 8.00022 0 0 0 16.410156 442.5293 L 23.601562 464.10352 A 46.58925 46.58925 0 0 0 67.857422 496 L 320 496 L 320 480 L 67.857422 480 A 30.61048 30.61048 0 0 1 38.779297 459.04297 L 35.099609 448 L 336 448 L 336 432 L 98.712891 432 L 116.85156 375.77344 A 563.9952 563.9952 0 0 0 134.60156 100.80273 L 121.85938 32 L 457.3457 32 L 470.62695 103.7168 A 543.41607 543.41607 0 0 1 467.48438 318.31445 L 483.125 321.68555 A 559.34532 559.34532 0 0 0 486.35938 100.80273 L 471.86523 22.542969 A 7.99963 7.99963 0 0 0 464 16 L 112.24219 16 z M 248 56 L 248 72 L 392 72 L 392 56 L 248 56 z M 168 96 L 168 112 L 192 112 L 192 96 L 168 96 z M 208 96 L 208 112 L 288 112 L 288 96 L 208 96 z M 328 96 L 328 112 L 352 112 L 352 96 L 328 96 z M 368 96 L 368 112 L 448 112 L 448 96 L 368 96 z M 168 144 L 168 160 L 192 160 L 192 144 L 168 144 z M 208 144 L 208 160 L 296 160 L 296 144 L 208 144 z M 328 144 L 328 160 L 352 160 L 352 144 L 328 144 z M 368 144 L 368 160 L 456 160 L 456 144 L 368 144 z M 168 192 L 168 208 L 192 208 L 192 192 L 168 192 z M 208 192 L 208 208 L 280 208 L 280 192 L 208 192 z M 328 192 L 328 208 L 352 208 L 352 192 L 328 192 z M 368 192 L 368 208 L 464 208 L 464 192 L 368 192 z M 168 240 L 168 256 L 192 256 L 192 240 L 168 240 z M 208 240 L 208 256 L 296 256 L 296 240 L 208 240 z M 328 240 L 328 256 L 352 256 L 352 240 L 328 240 z M 368 240 L 368 256 L 456 256 L 456 240 L 368 240 z M 402.2832 272.11719 A 23.94675 23.94675 0 0 0 388.60938 315.46484 L 375.98242 358.40039 L 363.38672 315.57617 A 23.99552 23.99552 0 1 0 336.67773 316.52539 L 261.74219 338.56641 A 7.999 7.999 0 0 0 256.32617 348.49805 L 274.38477 409.89648 A 7.99149 7.99149 0 0 0 284.31641 415.31445 L 366.33789 391.19141 L 336.17383 493.74219 L 351.52344 498.25781 L 375.98242 415.10352 L 400.43945 498.25781 L 415.78906 493.74219 L 385.58203 391.04297 L 467.68359 415.19141 A 7.99955 7.99955 0 0 0 477.61523 409.77539 L 495.67383 348.375 A 7.99993 7.99993 0 0 0 490.25781 338.44141 L 415.29102 316.39258 A 23.94675 23.94675 0 0 0 402.2832 272.11719 z M 160 288 L 160 304 L 184 304 L 184 288 L 160 288 z M 200 288 L 200 304 L 288 304 L 288 288 L 200 288 z M 402.35352 288.00977 A 8.00032 8.00032 0 1 1 395.48633 299.51758 A 7.94815 7.94815 0 0 1 395.10742 293.4082 A 8.00032 8.00032 0 0 1 402.35352 288.00977 z M 349.08203 288.13086 A 8.00037 8.00037 0 1 1 341.75977 298.72461 A 8.01576 8.01576 0 0 1 346.72852 288.56055 A 8.00037 8.00037 0 0 1 349.08203 288.13086 z M 401.31836 328.96094 L 478.06836 351.53516 L 473.60547 366.70703 L 396.85742 344.13281 L 401.31836 328.96094 z M 350.68164 329.08398 L 364.22656 375.13477 L 333.73438 384.10156 L 320.18945 338.05273 L 350.68164 329.08398 z M 152 336 L 152 352 L 176 352 L 176 336 L 152 336 z M 192 336 L 192 352 L 240 352 L 240 336 L 192 336 z M 304.83984 342.56836 L 318.38477 388.61719 L 287.47656 397.70703 L 273.93164 351.6582 L 304.83984 342.56836 z M 392.3418 359.48242 L 469.08984 382.05664 L 464.52344 397.58398 L 387.77344 375.00977 L 392.3418 359.48242 z M 136 384 L 136 400 L 160 400 L 160 384 L 136 384 z M 176 384 L 176 400 L 248 400 L 248 384 L 176 384 z M 437.03125 421.54492 L 425.02734 458.75977 A 30.5875 30.5875 0 0 1 420.69531 467.31055 L 433.66016 476.68945 A 46.57006 46.57006 0 0 0 440.25391 463.67188 L 452.25977 426.45703 L 437.03125 421.54492 z"/></svg>