<svg fill="#000000" xmlns="http://www.w3.org/2000/svg"  viewBox="0 0 24 24" width="48px" height="48px"><path d="M 10 3.5 C 6.413 3.5 3.5 6.413 3.5 10 C 3.5 13.587 6.413 16.5 10 16.5 C 11.613942 16.5 13.087517 15.907152 14.224609 14.931641 L 19.646484 20.353516 C 19.842484 20.548516 20.157516 20.548516 20.353516 20.353516 C 20.548516 20.157516 20.548516 19.842484 20.353516 19.646484 L 14.931641 14.224609 C 15.907152 13.087517 16.5 11.613942 16.5 10 C 16.5 6.413 13.587 3.5 10 3.5 z M 10 4.5 C 13.036 4.5 15.5 6.964 15.5 10 C 15.5 11.518 14.884172 12.893172 13.888672 13.888672 C 12.893172 14.884172 11.518 15.5 10 15.5 C 6.964 15.5 4.5 13.036 4.5 10 C 4.5 6.964 6.964 4.5 10 4.5 z"/></svg>