<svg fill="#000000" xmlns="http://www.w3.org/2000/svg"  viewBox="0 0 128 128" width="64px" height="64px"><path d="M 54 1 C 24.78 1 1 24.78 1 54 C 1 57.53 1.3490625 61.050469 2.0390625 64.480469 C 2.3590625 66.100469 3.9403125 67.150078 5.5703125 66.830078 C 7.1903125 66.500078 8.2499219 64.920781 7.9199219 63.300781 C 7.3099219 60.260781 7 57.13 7 54 C 7 28.08 28.08 7 54 7 C 79.92 7 101 28.08 101 54 C 101 79.92 79.92 101 54 101 C 41.61 101 29.910313 96.219062 21.070312 87.539062 C 19.890313 86.379063 17.990078 86.400078 16.830078 87.580078 C 15.670078 88.760078 15.689141 90.660312 16.869141 91.820312 C 26.839141 101.61031 40.02 107 54 107 C 67.54 107 79.899531 101.88977 89.269531 93.509766 L 121.58984 125.83008 C 122.17984 126.42008 122.94094 126.71094 123.71094 126.71094 C 124.48094 126.71094 125.25008 126.42008 125.83008 125.83008 C 127.00008 124.66008 127.00008 122.75984 125.83008 121.58984 L 93.509766 89.269531 C 101.88977 79.899531 107 67.53 107 54 C 107 24.78 83.22 1 54 1 z M 102 1 C 100.34 1 99 2.34 99 4 C 99 5.66 100.34 7 102 7 L 116.75977 7 L 106 17.759766 C 104.83 18.929766 104.83 20.83 106 22 C 106.59 22.59 107.34914 22.880859 108.11914 22.880859 C 108.88914 22.880859 109.66023 22.59 110.24023 22 L 121 11.240234 L 121 26 C 121 27.66 122.34 29 124 29 C 125.66 29 127 27.66 127 26 L 127 4 C 127 2.34 125.66 1 124 1 L 102 1 z M 87.410156 37.601562 C 86.642656 37.601562 85.874063 37.895469 85.289062 38.480469 L 61.410156 62.339844 C 60.660156 63.089844 59.340078 63.099844 58.580078 62.339844 L 45.660156 49.410156 C 44.150156 47.900156 42.14 47.070312 40 47.070312 C 37.86 47.070312 35.850547 47.899219 34.310547 49.449219 L 19.390625 64.830078 C 18.240625 66.020078 18.269219 67.920313 19.449219 69.070312 C 20.039219 69.640313 20.789062 69.919922 21.539062 69.919922 C 22.319063 69.919922 23.109453 69.619766 23.689453 69.009766 L 38.580078 53.660156 C 39.340078 52.910156 40.650156 52.900156 41.410156 53.660156 L 54.339844 66.589844 C 55.849844 68.099844 57.86 68.929688 60 68.929688 C 62.14 68.929688 64.150156 68.099844 65.660156 66.589844 L 89.529297 42.720703 C 90.699297 41.550703 90.699297 39.650469 89.529297 38.480469 C 88.944297 37.895469 88.177656 37.601562 87.410156 37.601562 z M 10.203125 75.558594 C 9.434375 75.569844 8.6698437 75.875703 8.0898438 76.470703 L 1.8398438 82.910156 C 0.68984375 84.100156 0.72015625 86.000391 1.9101562 87.150391 C 2.4901563 87.720391 3.25 88 4 88 C 4.78 88 5.5703906 87.699844 6.1503906 87.089844 L 12.400391 80.650391 C 13.550391 79.460391 13.519844 77.560156 12.339844 76.410156 C 11.744844 75.830156 10.971875 75.547344 10.203125 75.558594 z"/></svg>