<svg fill="#000000" xmlns="http://www.w3.org/2000/svg"  viewBox="0 0 520 520" width="64px" height="64px"><path d="M 189.86328 30 C 187.10228 30 184.86328 32.239 184.86328 35 L 184.86328 60 C 173.83528 60 164.86328 68.972 164.86328 80 C 164.86328 91.028 173.83528 100 184.86328 100 L 184.86328 174.57227 L 41.927734 415.34961 C 22.477734 448.34461 46.225219 490 84.574219 490 L 373.15234 490 C 411.45334 490 435.27478 448.38361 415.80078 415.34961 L 404.23047 395.72266 C 425.19147 387.13266 440 366.519 440 342.5 L 440 119.3418 C 448.612 117.1128 455 109.299 455 100 C 455 88.972 446.028 80 435 80 L 330 80 C 318.972 80 310 88.972 310 100 C 310 109.299 316.388 117.1128 325 119.3418 L 325 261.06055 L 274.86328 174.60156 L 274.86328 100 C 285.89128 100 294.86328 91.028 294.86328 80 C 294.86328 68.972 285.89128 60 274.86328 60 L 274.86328 35 C 274.86328 32.239 272.62528 30 269.86328 30 L 189.86328 30 z M 122.5 35 A 7.5 7.5 0 0 0 122.5 50 A 7.5 7.5 0 0 0 122.5 35 z M 194.86328 40 L 264.86328 40 L 264.86328 60 L 194.86328 60 L 194.86328 40 z M 322.5 40 A 7.5 7.5 0 0 0 322.5 55 A 7.5 7.5 0 0 0 322.5 40 z M 184.86328 70 L 274.86328 70 C 280.37728 70 284.86328 74.486 284.86328 80 C 284.86328 85.514 280.37728 90 274.86328 90 L 184.86328 90 C 179.34928 90 174.86328 85.514 174.86328 80 C 174.86328 74.486 179.34928 70 184.86328 70 z M 72.5 75 C 54.58 75 40 89.58 40 107.5 C 40 125.42 54.58 140 72.5 140 C 90.42 140 105 125.42 105 107.5 C 105 89.58 90.42 75 72.5 75 z M 72.5 85 C 84.907 85 95 95.093 95 107.5 C 95 119.907 84.907 130 72.5 130 C 60.093 130 50 119.907 50 107.5 C 50 95.093 60.093 85 72.5 85 z M 330 90 L 435 90 C 440.514 90 445 94.486 445 100 C 445 105.514 440.514 110 435 110 L 330 110 C 324.486 110 320 105.514 320 100 C 320 94.486 324.486 90 330 90 z M 194.86328 100 L 264.86328 100 L 264.86328 175.94531 C 264.86328 176.82631 265.09606 177.69113 265.53906 178.45312 L 325 280.99414 L 325 342.5 C 325 378.787 358.5012 406.35195 394.4082 398.75195 L 407.1875 420.42773 C 422.7115 446.76073 403.75234 480 373.15234 480 L 141.84766 480 C 111.19966 480 92.325203 446.70152 107.7832 420.47852 L 194.27734 277.58984 C 195.70734 275.22784 194.95184 272.15166 192.58984 270.72266 C 190.22784 269.29066 187.15266 270.04816 185.72266 272.41016 L 99.199219 415.34961 C 90.062219 430.84861 89.935328 449.42878 98.861328 465.05078 C 102.26433 471.00778 106.71134 476.042 111.90234 480 L 84.574219 480 C 54.023219 480 34.995203 446.79941 50.533203 420.44141 L 194.16211 178.49609 C 194.62011 177.72409 194.86328 176.84331 194.86328 175.94531 L 194.86328 100 z M 335 120 L 430 120 L 430 145 L 405 145 C 402.238 145 400 147.239 400 150 C 400 152.761 402.238 155 405 155 L 430 155 L 430 165 L 395 165 C 392.238 165 390 167.239 390 170 C 390 172.761 392.238 175 395 175 L 430 175 L 430 185 L 405 185 C 402.238 185 400 187.239 400 190 C 400 192.761 402.238 195 405 195 L 430 195 L 430 205 L 395 205 C 392.238 205 390 207.239 390 210 C 390 212.761 392.238 215 395 215 L 430 215 L 430 225 L 405 225 C 402.238 225 400 227.239 400 230 C 400 232.761 402.238 235 405 235 L 430 235 L 430 245 L 395 245 C 392.238 245 390 247.239 390 250 C 390 252.761 392.238 255 395 255 L 430 255 L 430 265 L 405 265 C 402.238 265 400 267.238 400 270 C 400 272.762 402.238 275 405 275 L 430 275 L 430 342.5 C 430 368.691 408.691 390 382.5 390 C 356.309 390 335 368.691 335 342.5 L 335 120 z M 462.5 135 A 7.5 7.5 0 0 0 462.5 150 A 7.5 7.5 0 0 0 462.5 135 z M 137.5 140 A 7.5 7.5 0 0 0 137.5 155 A 7.5 7.5 0 0 0 137.5 140 z M 307.5 160 A 7.5 7.5 0 0 0 307.5 175 A 7.5 7.5 0 0 0 307.5 160 z M 47.5 210 A 7.5 7.5 0 0 0 47.5 225 A 7.5 7.5 0 0 0 47.5 210 z M 72.5 290 A 7.5 7.5 0 0 0 72.5 305 A 7.5 7.5 0 0 0 72.5 290 z M 457.5 355 A 7.5 7.5 0 0 0 457.5 370 A 7.5 7.5 0 0 0 457.5 355 z M 460 400 C 446.215 400 435 411.215 435 425 C 435 438.785 446.215 450 460 450 C 473.785 450 485 438.785 485 425 C 485 411.215 473.785 400 460 400 z M 460 410 C 468.271 410 475 416.729 475 425 C 475 433.271 468.271 440 460 440 C 451.729 440 445 433.271 445 425 C 445 416.729 451.729 410 460 410 z"/></svg>