<?xml version="1.0" encoding="utf-8"?>
<!-- Generator: Adobe Illustrator 26.3.1, SVG Export Plug-In . SVG Version: 6.00 Build 0)  -->
<svg version="1.1" id="Layer_2_00000046339379730899628240000011895576109590343050_"
	 xmlns="http://www.w3.org/2000/svg" xmlns:xlink="http://www.w3.org/1999/xlink" x="0px" y="0px" viewBox="0 0 234.2 76"
	 style="enable-background:new 0 0 234.2 76;" xml:space="preserve">
<style type="text/css">
	.st0{fill:#49EACB;}
	.st1{fill:#FFFFFF;}
	.st2{fill:#1A1A1A;}
</style>
<g id="Layer_1-2">
	<g>
		<g>
			<path class="st0" d="M76.1,37.6c0,5.1-2.1,10-3.9,14.4s-4.7,8.8-8.2,12.3c-3.5,3.5-7.6,6.4-12.2,8.3c-4.4,1.8-9.4,3.3-14.5,3.3
				s-10.2-1.2-14.6-3.1c-4.6-1.9-7.7-6-11.2-9.5s-7.3-6.7-9.2-11.3c-1.8-4.4-2.2-9.4-2.2-14.5s-0.6-10.5,1.2-14.9
				c1.9-4.6,5.9-8.3,9.4-11.7c3.5-3.5,7.3-7.1,11.9-9c4.4-1.8,9.7-2,14.8-2s10,0.9,14.4,2.8s9,4.5,12.5,7.9s6.5,7.7,8.4,12.3
				C74.4,27.4,76.1,32.5,76.1,37.6z"/>
			<polygon class="st1" points="48,15.9 39.9,17.1 42.2,32.7 25.4,19.7 20.4,26.2 35.2,37.6 20.4,49 25.4,55.5 42.2,42.5 39.9,58.1 
				48,59.3 51.2,37.6 			"/>
		</g>
		<g>
			<path class="st2" d="M142.2,31c-4,0-7.8,1.2-10.4,2.8c-0.5,0.3-0.6,0.6-0.3,1.1l1.6,3.5c0.3,0.6,0.7,0.6,1.2,0.3
				c1.9-1.1,4.4-2,7-2c1.3,0,2.5,0.3,3.1,1.1c0.6,0.7,0.8,1.6,0.8,2.9v0.6c-3,0.2-7,0.7-10.1,2c-2.7,1.2-4.6,3.2-4.6,6.5
				c0,2.5,0.9,4.5,2.5,5.8c1.5,1.3,3.6,2.1,5.9,2.1c2.6,0,4.5-0.4,6.8-1.8h0.2v0.5c0,0.5,0.4,0.8,0.9,0.8h4.9c0.4,0,0.8-0.4,0.8-0.8
				V40.7c0-3.2-0.8-5.2-2.2-6.8C148.1,31.5,144.8,31,142.2,31L142.2,31z M145.2,51.1c-1.3,0.8-2.6,1.1-3.9,1.1
				c-2.1,0-3.8-0.8-3.8-2.6c0-2.7,4.4-3.2,7.7-3.3C145.2,46.3,145.2,51.1,145.2,51.1z"/>
			<path class="st2" d="M173.5,43c-1.8-0.9-3.4-1.4-5.2-2.1c-1.3-0.5-2.5-1.1-2.5-2.2c0-1.3,1.1-1.8,2.6-1.8c1.6,0,3.5,0.4,5.8,1.6
				c0.4,0.2,0.8,0.2,1-0.3l2-4.1c0.2-0.4,0.2-0.8-0.3-1.1c-2-1.1-4.6-2-8.7-2c-6.6,0-10.2,3-10.2,7.7c0,3.2,1.4,5.4,4.1,6.7
				c1.8,0.9,3.7,1.5,5.4,2.2c1.4,0.6,2.4,1.1,2.4,2.3c0,1.3-1.1,2-3,2c-2.4,0-4.1-0.8-6.3-2.1c-0.4-0.2-0.8-0.1-1.1,0.3l-2.1,4.3
				c-0.2,0.4-0.1,0.8,0.4,1.1c2,1.1,4.6,2.1,9.2,2.1c6.5,0,10.6-3.5,10.6-8.2C177.7,46.7,176.5,44.4,173.5,43L173.5,43z"/>
			<path class="st2" d="M192.9,31c-3.3,0-6.7,0.3-9,0.9c-0.6,0.2-0.8,0.5-0.8,1v36.4c0,0.5,0.3,0.9,0.8,0.9h5.7
				c0.4,0,0.8-0.4,0.8-0.9V57.2c1.2,0.3,2.5,0.5,3.9,0.5c3.9,0,8-1.2,10.6-4.2c1.8-2.1,3-5.1,3-9.1s-1.3-7.2-3.6-9.3
				C201.8,32.3,197.6,31,192.9,31z M198.7,50c-1.4,1.2-3.2,1.6-5.1,1.6c-1.2,0-2.2-0.2-3.1-0.5V37.3c0.9-0.2,2.2-0.2,3.2-0.2
				c2.2,0,4,0.7,5.2,2.1c1.1,1.3,1.8,3,1.8,5.2C200.7,47,199.9,48.9,198.7,50L198.7,50z"/>
			<path class="st2" d="M231.9,33.9c-2.2-2.4-5.5-2.9-8.1-2.9c-4,0-7.8,1.2-10.4,2.8c-0.5,0.3-0.6,0.6-0.3,1.1l1.6,3.5
				c0.3,0.6,0.7,0.6,1.2,0.3c1.9-1.1,4.4-2,7-2c1.3,0,2.5,0.3,3.1,1.1c0.6,0.7,0.8,1.6,0.8,2.9v0.6c-3,0.2-7,0.7-10.1,2
				c-2.7,1.2-4.6,3.2-4.6,6.5c0,2.5,0.9,4.5,2.5,5.8c1.5,1.3,3.6,2.1,5.9,2.1c2.6,0,4.5-0.4,6.8-1.8h0.2v0.5c0,0.5,0.4,0.8,0.9,0.8
				h4.9c0.4,0,0.8-0.4,0.8-0.8V40.7C234.2,37.5,233.3,35.5,231.9,33.9L231.9,33.9z M226.8,51.1c-1.3,0.8-2.6,1.1-3.9,1.1
				c-2.1,0-3.8-0.8-3.8-2.6c0-2.7,4.4-3.2,7.7-3.3C226.8,46.3,226.8,51.1,226.8,51.1z"/>
			<path class="st2" d="M128.4,19h-8.1c-0.7,0-1.2,0.3-1.7,0.8l-11.4,11.2V19.9c0-0.5-0.3-0.8-0.8-0.8H100c-0.5,0-0.9,0.4-0.9,0.8
				v36.4c0,0.5,0.4,0.8,0.9,0.8h6.3c0.5,0,0.8-0.4,0.8-0.8V45.1l11.4,11.2c0.5,0.6,1.1,0.8,1.7,0.8h8.1c0.7,0,1-0.7,0.4-1.3
				l-18.1-17.7l18.1-17.7C129.4,19.7,129.2,19,128.4,19L128.4,19z"/>
		</g>
	</g>
</g>
</svg>
