<svg xmlns="http://www.w3.org/2000/svg"  viewBox="0 0 64 64" width="256px" height="256px"><g data-name="13-Chemistry"><path fill="#f7b255" d="M53,46.6S53,49,50,49a3,3,0,0,1-3-3.2c0-4,3-4.8,3-4.8v4a.752.752,0,1,0,1.5,0v-.8S53,44.2,53,46.6Z"/><path fill="#aeb8c1" d="M34,31V61a2.006,2.006,0,0,1-2,2,2.015,2.015,0,0,1-2-2V31Z"/><path fill="#aeb8c1" d="M34,12v2H30V12a2.006,2.006,0,0,1,2-2,2.015,2.015,0,0,1,2,2Z"/><rect width="4" height="9" x="30" y="18" fill="#aeb8c1"/><path fill="#80beff" d="M59,55v6a2.006,2.006,0,0,1-2,2H43a2.006,2.006,0,0,1-2-2V55H59Z"/><polygon fill="#0867d3" points="35 16 35 18 34 18 30 18 29 18 29 14 30 14 34 14 35 14 35 16"/><polygon fill="#0867d3" points="30 27 34 27 35 27 35 31 34 31 30 31 29 31 29 29 29 27 30 27"/><path fill="#0867d3" d="M56,28h2.94A8.262,8.262,0,0,1,59,29a9,9,0,0,1-18,0h4a2,2,0,0,1,4,0h2.11a.892.892,0,0,0,.89-.89,2.064,2.064,0,0,1,1.37-2.01A2,2,0,0,1,56,28Z"/><path fill="#e9effb" d="M53,11v3H47V11h-.5a1.5,1.5,0,0,1,0-3h7a1.5,1.5,0,0,1,0,3Z"/><path fill="#e9effb" d="M47,27a2.006,2.006,0,0,0-2,2H41a9,9,0,0,1,6-8.48V18h6v2.52A8.991,8.991,0,0,1,58.94,28H56a2,2,0,0,0-2.63-1.9A2.064,2.064,0,0,0,52,28.11a.892.892,0,0,1-.89.89H49A2.006,2.006,0,0,0,47,27Z"/><path fill="#c3ddff" d="M15,21h3.5a1.5,1.5,0,0,1,0,3H18v3H12V24h-.5a1.5,1.5,0,0,1,0-3H15Z"/><path fill="#e9effb" d="M12,35.39V31h6v4.39A11.975,11.975,0,0,1,26.83,49H3.17A11.975,11.975,0,0,1,12,35.39ZM15,46c.55,0,1-.6,1-1.33A10.145,10.145,0,0,0,15,42a10.145,10.145,0,0,0-1,2.67C14,45.4,14.45,46,15,46Zm1-8.33A10.145,10.145,0,0,0,15,35a10.145,10.145,0,0,0-1,2.67c0,.73.45,1.33,1,1.33S16,38.4,16,37.67Z"/><path fill="#9cc7ff" d="M15,35a10.145,10.145,0,0,1,1,2.67c0,.73-.45,1.33-1,1.33s-1-.6-1-1.33A10.145,10.145,0,0,1,15,35Z"/><path fill="#9cc7ff" d="M15,42a10.145,10.145,0,0,1,1,2.67c0,.73-.45,1.33-1,1.33s-1-.6-1-1.33A10.145,10.145,0,0,1,15,42Z"/><path fill="#9cc7ff" d="M26.83,49A12,12,0,0,1,3.17,49Z"/><path fill="#dbeaff" d="M53,50H47c-3.31,0-6,2-6,4v1H59V54C59,52,56.31,50,53,50Zm-3,4,0-.01V54Z"/><rect width="9" height="2" x="35" y="15" fill="#8d949c"/><rect width="8" height="2" x="21" y="28" fill="#8d949c"/><path fill="#0867d3" d="M16,21H14V4.5A4.505,4.505,0,0,1,18.5,0,4.515,4.515,0,0,1,23,4.5V6a1,1,0,0,0,1,1,.957.957,0,0,0,.694-.288A.974.974,0,0,0,25,6V3a3,3,0,0,1,3-3,2.944,2.944,0,0,1,2.126.892A2.928,2.928,0,0,1,31,3V6a1,1,0,0,0,1,1,.957.957,0,0,0,.694-.288A.974.974,0,0,0,33,6V3a3,3,0,0,1,3-3,2.944,2.944,0,0,1,2.126.892A2.928,2.928,0,0,1,39,3V6a1,1,0,0,0,1,1,.957.957,0,0,0,.694-.288A.974.974,0,0,0,41,6V5A5,5,0,1,1,51,5V8H49V5a3,3,0,0,0-6,0V6a3.015,3.015,0,0,1-3,3,3,3,0,0,1-3-3V3a.957.957,0,0,0-.288-.694A.974.974,0,0,0,36,2a1,1,0,0,0-1,1V6a3.015,3.015,0,0,1-3,3,3,3,0,0,1-3-3V3a.957.957,0,0,0-.288-.694A.974.974,0,0,0,28,2a1,1,0,0,0-1,1V6a3.015,3.015,0,0,1-3,3,3,3,0,0,1-3-3V4.5A2.516,2.516,0,0,0,18.5,2,2.5,2.5,0,0,0,16,4.5Z"/><rect width="2" height="3" x="14" y="24" fill="#143d73"/><rect width="12" height="4" x="44" y="14" fill="#aeb8c1"/><rect width="12" height="4" x="9" y="27" fill="#aeb8c1"/><path fill="#8d949c" d="M30,31V61a2.015,2.015,0,0,0,2,2,2.006,2.006,0,0,0,2-2V60a1,1,0,0,1-2,0V35a2,2,0,0,1,2-2V31Z"/><path fill="#8d949c" d="M34,18H30v9h2V22a2,2,0,0,1,2-2h0Z"/><path fill="#8d949c" d="M33,13a1,1,0,0,1-1-1V10a2.006,2.006,0,0,0-2,2v2h4V13Z"/><path fill="#98a0a8" d="M12,27h0a2,2,0,0,0,2,2h7v2H9V27Z"/><path fill="#98a0a8" d="M47,14h0a2,2,0,0,0,2,2h7v2H44V14Z"/><path fill="#0c62d9" d="M50.483,54.121a.517.517,0,0,0,.017-.131V48.974A4.894,4.894,0,0,1,50,49a3.069,3.069,0,0,1-.5-.057V53.95c-.005.019-.009.036-.012.054a7.086,7.086,0,0,1-.191.864c-.011.041-.026.088-.039.132h1.036C50.389,54.646,50.448,54.329,50.483,54.121Z"/><path fill="#143d73" d="M56,59.5H47.5a1,1,0,0,1,0-2H48c1.042,0,1.846-.841,2.26-2.36.014-.051.021-.091.034-.14H49.258c-.183.614-.566,1.5-1.258,1.5h-.5a2,2,0,0,0,0,4H56a.5.5,0,0,0,0-1Z"/><rect width="1" height="1" x="49.5" y="50" fill="#dbeaff"/><rect width="4" height="8" x="53" y="55" fill="#a0d3ff"/><path fill="#eef7ff" d="M53,54v1h4V54a4,4,0,0,0-4-4H49A4,4,0,0,1,53,54Z"/><path fill="#63a6ec" d="M44,61V55H41v6a2.006,2.006,0,0,0,2,2h3A2.006,2.006,0,0,1,44,61Z"/><path fill="#c3ddff" d="M44,54c0-1.859,2.326-3.716,5.312-3.969-.1-.008-.2-.031-.312-.031H47c-3.31,0-6,2-6,4v1h3Z"/><path fill="#0c62d9" d="M56,59.5H53v1h3a.5.5,0,0,0,0-1Z"/><path fill="#ef7127" d="M52,47.5a3.951,3.951,0,0,0-.76-1.907.716.716,0,0,1-.49.207A.78.78,0,0,1,50,45V44s-2,2.119-2,3.5a1.6,1.6,0,0,0,.248.947A3.514,3.514,0,0,0,50,49a3.98,3.98,0,0,0,1.381-.219A1.276,1.276,0,0,0,52,47.5Z"/><rect width="10" height="3" x="10" y="21" fill="#e9effb" rx="1.5"/><path fill="#c3ddff" d="M18.5,23h-7a1.5,1.5,0,0,1-1.408-1,1.483,1.483,0,0,0-.092.5A1.5,1.5,0,0,0,11.5,24h7A1.5,1.5,0,0,0,20,22.5a1.483,1.483,0,0,0-.092-.5A1.5,1.5,0,0,1,18.5,23Z"/><path fill="#c3ddff" d="M7,45a11.968,11.968,0,0,1,4.722-9.526A11.964,11.964,0,0,0,3.17,49H7.7A11.966,11.966,0,0,1,7,45Z"/><path fill="#63a6ec" d="M7.7,49H3.17a11.987,11.987,0,0,0,19.1,7.537A11.951,11.951,0,0,1,7.7,49Z"/><rect width="6" height="3" x="12" y="31" fill="#c3ddff"/><path fill="#fff" d="M16.313,39.085a1.027,1.027,0,0,0-.308.749,1.155,1.155,0,0,0,.4.634,46.651,46.651,0,0,1,4.246,4.013,6.3,6.3,0,0,0,1.012,1.146,1.5,1.5,0,0,0,1.439.289,1.806,1.806,0,0,0,.881-1.61A5.8,5.8,0,0,0,22.7,40.215C21.183,38.367,18.158,36.917,16.313,39.085Z"/><polygon fill="#0c428c" points="29 14 31 14 31 17 35 17 35 18 29 18 29 14"/><polygon fill="#0c428c" points="29 27 31 27 31 30 35 30 35 31 29 31 29 27"/><rect width="10" height="3" x="45" y="8" fill="#e9effb" rx="1.5"/><path fill="#c3ddff" d="M53.5,10h-7a1.5,1.5,0,0,1-1.408-1A1.483,1.483,0,0,0,45,9.5,1.5,1.5,0,0,0,46.5,11h7A1.5,1.5,0,0,0,55,9.5a1.483,1.483,0,0,0-.092-.5A1.5,1.5,0,0,1,53.5,10Z"/><path fill="#c3ddff" d="M53,11H47v3h2V12h4Z"/><path fill="#0c428c" d="M44.2,29H41a8.991,8.991,0,0,0,13.123,7.994c-.041,0-.081.006-.123.006A10,10,0,0,1,44.2,29Z"/><path fill="#c3ddff" d="M44,27a9.944,9.944,0,0,1,2.078-6.086A8.988,8.988,0,0,0,41,29h3.2A10.057,10.057,0,0,1,44,27Z"/><rect width="6" height="2" x="47" y="18" fill="#c3ddff"/><path fill="#fff" d="M53.37,26.1A2,2,0,0,1,56,28h1.977A5.79,5.79,0,0,0,56.7,24.215c-1.515-1.848-4.54-3.3-6.385-1.13a1.027,1.027,0,0,0-.308.749,1.155,1.155,0,0,0,.4.634c.728.715,1.524,1.365,2.293,2.039A1.77,1.77,0,0,1,53.37,26.1Z"/><path fill="#63a6ec" d="M54.651,28.481a6.3,6.3,0,0,0,1.012,1.146,1.5,1.5,0,0,0,1.439.289,1.8,1.8,0,0,0,.88-1.61c.009-.1-.008-.2-.005-.306H56a2,2,0,0,0-2.63-1.9,1.77,1.77,0,0,0-.672.407A15.174,15.174,0,0,1,54.651,28.481Z"/><circle cx="54" cy="34" r="1" fill="#e9effb"/><circle cx="47" cy="25" r="1" fill="#0867d3"/><circle cx="48.5" cy="22.5" r=".5" fill="#0867d3"/><path fill="#0c428c" d="M24,8a3,3,0,0,1-3-3V6a3,3,0,0,0,3,3,3.015,3.015,0,0,0,3-3V5a2.944,2.944,0,0,1-.892,2.126A2.928,2.928,0,0,1,24,8Z"/><path fill="#0c428c" d="M48.118,1.872A3,3,0,0,0,43,4V5a3,3,0,1,1,6,0V4A3.018,3.018,0,0,0,48.118,1.872Z"/><path fill="#0c428c" d="M20.268,1.742A2.458,2.458,0,0,0,18.5,1,2.5,2.5,0,0,0,16,3.5v1A2.5,2.5,0,0,1,18.5,2,2.516,2.516,0,0,1,21,4.5v-1A2.449,2.449,0,0,0,20.268,1.742Z"/><path fill="#0c428c" d="M28.712,1.306A.974.974,0,0,0,28,1a1,1,0,0,0-1,1V3a1,1,0,0,1,1-1,.974.974,0,0,1,.712.306A.957.957,0,0,1,29,3V2A.957.957,0,0,0,28.712,1.306Z"/><path fill="#0c428c" d="M32,8a3,3,0,0,1-3-3V6a3,3,0,0,0,3,3,3.015,3.015,0,0,0,3-3V5a2.944,2.944,0,0,1-.892,2.126A2.928,2.928,0,0,1,32,8Z"/><path fill="#0c428c" d="M36.712,1.306A.974.974,0,0,0,36,1a1,1,0,0,0-1,1V3a1,1,0,0,1,1-1,.974.974,0,0,1,.712.306A.957.957,0,0,1,37,3V2A.957.957,0,0,0,36.712,1.306Z"/><path fill="#0c428c" d="M40,8a3,3,0,0,1-3-3V6a3,3,0,0,0,3,3,3.015,3.015,0,0,0,3-3V5a2.944,2.944,0,0,1-.892,2.126A2.928,2.928,0,0,1,40,8Z"/><rect width="2" height="2" x="14" y="19" fill="#0c428c"/><circle cx="20" cy="52" r="1" fill="#63a6ec"/><circle cx="18" cy="55" r="1" fill="#63a6ec"/></g></svg>